<?xml version="1.0" encoding="UTF-8"?>
<svg version="1.1" xmlns="http://www.w3.org/2000/svg" width="120" height="60">
<path d="M0 0 C6 0 6 0 8.08984375 1.65234375 C8.69957031 2.40644531 9.30929687 3.16054688 9.9375 3.9375 C10.60652344 4.74960937 11.27554687 5.56171875 11.96484375 6.3984375 C12.63644531 7.25695312 13.30804688 8.11546875 14 9 C14.68191406 9.85851563 15.36382812 10.71703125 16.06640625 11.6015625 C17.73032852 13.71928176 19.36779924 15.85773651 21 18 C21.33 12.06 21.66 6.12 22 0 C28.93 0 35.86 0 43 0 C43 1.32 43 2.64 43 4 C37.72 4 32.44 4 27 4 C27 5.65 27 7.3 27 9 C31.29 9 35.58 9 40 9 C40 10.32 40 11.64 40 13 C35.71 13 31.42 13 27 13 C27 14.65 27 16.3 27 18 C31.95 18 36.9 18 42 18 C42.495 19.98 42.495 19.98 43 22 C40.00123865 24.99876135 31.11530607 23.61575899 27.08886719 23.6706543 C18.92974113 23.52726553 18.92974113 23.52726553 14.76953125 21.16796875 C12.79178511 18.86123582 11.41481341 16.6804748 10 14 C8.68 12.35 7.36 10.7 6 9 C5.67 13.62 5.34 18.24 5 23 C3.35 23 1.7 23 0 23 C0 15.41 0 7.82 0 0 Z " fill="#FFFFFF" transform="translate(6,20)"/>
<path d="M0 0 C3.1875 -0.375 3.1875 -0.375 7 0 C9.1403498 1.81188028 10.38988302 3.65801167 12 6 C12.86625 5.01 13.7325 4.02 14.625 3 C17.12345413 0.46585366 17.66854671 0.03682814 21.375 -0.375 C22.24125 -0.25125 23.1075 -0.1275 24 0 C23.05208333 1.421875 22.10416667 2.84375 21.15625 4.265625 C20.7746875 4.83796875 20.393125 5.4103125 20 6 C18.66666667 8 17.33333333 10 16 12 C16.5775 12.62648438 17.155 13.25296875 17.75 13.8984375 C18.4925 14.71570312 19.235 15.53296875 20 16.375 C20.7425 17.18710937 21.485 17.99921875 22.25 18.8359375 C24 21 24 21 24 23 C21.33984375 23.37109375 21.33984375 23.37109375 18 23 C15.87343385 21.04283314 14.29137188 19.32522855 12.5625 17.0625 C12.09094482 16.47436523 11.61938965 15.88623047 11.13354492 15.28027344 C9.73869151 13.53283803 8.36876172 11.76789914 7 10 C6.25234375 9.06542969 5.5046875 8.13085938 4.734375 7.16796875 C0 1.21150915 0 1.21150915 0 0 Z " fill="#FFFFFF" transform="translate(52,20)"/>
<path d="M0 0 C6.6 0 13.2 0 20 0 C20 1.32 20 2.64 20 4 C17.69 4 15.38 4 13 4 C13 10.27 13 16.54 13 23 C11.35 23 9.7 23 8 23 C8 16.73 8 10.46 8 4 C5.36 4 2.72 4 0 4 C0 2.68 0 1.36 0 0 Z " fill="#FFFFFF" transform="translate(79,20)"/>
<path d="M0 0 C1.67542976 0.28604898 3.34385343 0.61781233 5 1 C5.84454356 4.37817425 6.10844919 6.67465243 5 10 C3.1875 10.625 3.1875 10.625 1 11 C0.01 10.34 -0.98 9.68 -2 9 C-2 2 -2 2 0 0 Z " fill="#FFFFFF" transform="translate(111,32)"/>
<path d="M0 0 C0.99 0.99 1.98 1.98 3 3 C0.87452471 9.04942966 0.87452471 9.04942966 -2 11 C-5.1875 11.1875 -5.1875 11.1875 -8 11 C-6.63629701 8.00779732 -5.05091917 5.70973471 -2.875 3.25 C-2.33617187 2.63640625 -1.79734375 2.0228125 -1.2421875 1.390625 C-0.62730469 0.70226563 -0.62730469 0.70226563 0 0 Z " fill="#FFFFFF" transform="translate(60,32)"/>
<path d="M0 0 C0.66 0 1.32 0 2 0 C2 3.3 2 6.6 2 10 C-2 11 -2 11 -5 10 C-5.99 10 -6.98 10 -8 10 C-8 9.34 -8 8.68 -8 8 C-2.25 6.875 -2.25 6.875 0 8 C0 5.36 0 2.72 0 0 Z " fill="#FFFFFF" transform="translate(106,32)"/>
</svg>
